<svg width="2238" height="1678" viewBox="0 0 2238 1678" fill="none" xmlns="http://www.w3.org/2000/svg">
<path fill-rule="evenodd" clip-rule="evenodd" d="M1141 1404C1453.32 1404 1706.5 1150.82 1706.5 838.5C1706.5 526.183 1453.32 273 1141 273C828.683 273 575.5 526.183 575.5 838.5C575.5 1150.82 828.683 1404 1141 1404ZM1141 1407C1454.97 1407 1709.5 1152.47 1709.5 838.5C1709.5 524.526 1454.97 270 1141 270C827.026 270 572.5 524.526 572.5 838.5C572.5 1152.47 827.026 1407 1141 1407Z" fill="#C2BBFF"/>
<path d="M735.999 886.5L756.568 906.491C773.768 923.21 771.752 951.394 752.346 965.494C736.903 976.715 715.581 974.984 702.149 961.42L674.499 933.5L648.422 920.461C645.2 918.85 641.603 918.139 638.011 918.403L544.097 925.309C542.425 925.432 540.767 924.93 539.443 923.9C534.906 920.371 536.551 913.151 542.17 911.936L564.999 907C560.942 902.717 562.944 895.652 568.646 894.135L664.999 868.5L639.774 854.26C636.429 852.372 634.912 848.363 636.168 844.733C637.495 840.901 641.493 838.681 645.447 839.581L712.531 854.845C718.51 856.206 723.534 860.233 726.162 865.772L735.999 886.5Z" fill="#F1BFA9"/>
<path fill-rule="evenodd" clip-rule="evenodd" d="M636.992 899.847C637.077 900.671 636.478 901.407 635.654 901.492L567.654 908.492C566.83 908.577 566.093 907.978 566.008 907.154C565.923 906.33 566.522 905.593 567.347 905.508L635.347 898.508C636.171 898.423 636.907 899.022 636.992 899.847Z" fill="#DD9576"/>
<path d="M1104.44 878.752C1130.3 851.275 1173.54 849.961 1201.01 875.818C1228.49 901.674 1229.8 944.91 1203.95 972.388L1000.82 1188.25C974.966 1215.72 931.73 1217.04 904.252 1191.18C876.775 1165.32 875.461 1122.09 901.318 1094.61L1104.44 878.752Z" fill="url(#paint0_linear_51_177)"/>
<path d="M998.607 1092.19L772.5 909L666.209 970.282L904.88 1191.61C932.334 1217.49 975.571 1216.21 1001.45 1188.76C1027.33 1161.31 1026.06 1118.07 998.607 1092.19Z" fill="url(#paint1_linear_51_177)"/>
<path fill-rule="evenodd" clip-rule="evenodd" d="M1460.5 1309C1368.27 1373.55 1262.12 1407 1141 1407C1111.19 1407 1081.91 1404.71 1053.34 1400.28L1095.5 1254L1458.5 1257.5L1460.5 1309Z" fill="#C2BBFF"/>
<path d="M1415 839.5C1401.05 833.61 1168 850.5 1137 869C1124 876.758 1126 922.171 1126 946C1126 1009 1119.5 1019 1121 1060.5C1122.5 1102 1097 1194 1088 1235C1079 1276 1093.73 1295.41 1108.5 1300.5C1139 1311 1339.5 1307.17 1460 1300.5V956C1460 956 1460 858.501 1415 839.5Z" fill="url(#paint2_linear_51_177)"/>
<path fill-rule="evenodd" clip-rule="evenodd" d="M1261 904C1261.83 904 1262.5 904.672 1262.5 905.5V1300C1262.5 1300.83 1261.83 1301.5 1261 1301.5C1260.17 1301.5 1259.5 1300.83 1259.5 1300V905.5C1259.5 904.672 1260.17 904 1261 904Z" fill="white"/>
<path d="M1172.07 858.817L1221.5 852L1355.46 839.948C1358.47 839.677 1359.95 843.528 1357.52 845.339L1309.01 881.624C1307.64 882.647 1307.4 884.603 1308.48 885.925L1330.48 912.854C1332.23 914.994 1330.4 918.16 1327.67 917.712L1260.07 906.594C1259.69 906.532 1259.31 906.543 1258.93 906.628L1198.39 920.219C1195.3 920.913 1193.38 916.971 1195.83 914.969L1218.16 896.729C1219.78 895.407 1219.58 892.875 1217.78 891.818L1170.97 864.377C1168.51 862.937 1169.25 859.206 1172.07 858.817Z" fill="#C2BBFF"/>
<path fill-rule="evenodd" clip-rule="evenodd" d="M1158.5 621.5C1158.5 645.949 1175.67 666.567 1199.11 672.955C1204.43 683.838 1213.28 693.236 1224.47 700.187C1239.79 738.774 1272.45 807.076 1304.57 784.544C1348.58 753.66 1372.61 697.86 1365.16 675.666C1361.1 663.584 1355.25 653.583 1348.37 645.28C1346.04 611.665 1312.29 585 1271 585C1266.05 585 1261.2 585.384 1256.5 586.117C1246.24 575.007 1231.23 568 1214.5 568C1183.57 568 1158.5 591.953 1158.5 621.5Z" fill="#171625"/>
<path fill-rule="evenodd" clip-rule="evenodd" d="M1179.31 648.467C1187.95 617.376 1219.59 598.646 1251.01 606.023C1278.38 612.451 1296.97 636.639 1297.41 663.543C1299.4 663.672 1301.39 664.041 1303.36 664.668C1318.73 669.588 1326.41 688.532 1320.51 706.98C1317.41 716.657 1311.2 724.276 1303.76 728.622L1323.13 844.321C1323.68 847.564 1322.59 850.866 1320.23 853.154L1268.4 903.366C1263.99 907.639 1256.8 906.964 1253.26 901.945L1222.46 858.248C1221.43 856.777 1220.81 855.053 1220.67 853.258L1215.73 789.561C1210.64 789.113 1205.52 788.017 1200.45 786.219C1169.98 775.396 1153.07 742.85 1161.73 711.697L1179.31 648.467Z" fill="#F1BFA9"/>
<path d="M1250.5 774L1215.5 789.5L1218 822.5L1250.5 774Z" fill="#171625"/>
<path fill-rule="evenodd" clip-rule="evenodd" d="M1192.03 678.714C1193.61 679.216 1194.49 680.903 1193.98 682.482L1191.13 691.453C1190.63 693.032 1188.94 693.905 1187.36 693.403C1185.79 692.9 1184.91 691.213 1185.41 689.634L1188.27 680.663C1188.77 679.085 1190.46 678.212 1192.03 678.714ZM1240.08 686.52C1241.66 687.022 1242.54 688.709 1242.03 690.288L1239.18 699.259C1238.68 700.838 1236.99 701.711 1235.41 701.209C1233.83 700.707 1232.96 699.02 1233.46 697.441L1236.32 688.47C1236.82 686.891 1238.5 686.018 1240.08 686.52Z" fill="#171625"/>
<path fill-rule="evenodd" clip-rule="evenodd" d="M1209.91 693.951C1210.69 694.228 1211.1 695.085 1210.82 695.866L1201.65 721.765L1211.25 721.322C1212.08 721.283 1212.78 721.923 1212.82 722.751C1212.85 723.578 1212.21 724.28 1211.39 724.318L1199.56 724.864C1199.06 724.887 1198.59 724.66 1198.29 724.259C1197.99 723.858 1197.91 723.336 1198.08 722.865L1208 694.864C1208.27 694.083 1209.13 693.675 1209.91 693.951Z" fill="#DD9576"/>
<path fill-rule="evenodd" clip-rule="evenodd" d="M1234.83 728.377C1235.55 728.788 1235.8 729.704 1235.39 730.423L1234.13 729.706C1235.39 730.423 1235.39 730.423 1235.39 730.423L1235.38 730.427L1235.38 730.433L1235.37 730.452C1235.36 730.467 1235.35 730.489 1235.33 730.516C1235.3 730.569 1235.25 730.645 1235.19 730.741C1235.08 730.932 1234.9 731.202 1234.68 731.53C1234.24 732.185 1233.59 733.079 1232.76 734.041C1231.12 735.938 1228.68 738.227 1225.64 739.375C1222.69 740.492 1220.11 740.556 1218.25 740.328C1217.33 740.214 1216.58 740.027 1216.06 739.865C1215.79 739.783 1215.58 739.707 1215.44 739.649C1215.36 739.619 1215.3 739.594 1215.26 739.575C1215.23 739.565 1215.21 739.557 1215.2 739.551L1215.18 739.542L1215.17 739.539L1215.17 739.537L1215.17 739.537C1215.17 739.537 1215.17 739.536 1215.8 738.177L1215.17 739.536C1214.42 739.185 1214.09 738.292 1214.45 737.542C1214.8 736.794 1215.68 736.47 1216.43 736.815L1216.44 736.82C1216.46 736.827 1216.49 736.839 1216.53 736.856C1216.62 736.889 1216.76 736.941 1216.94 736.999C1217.32 737.116 1217.89 737.261 1218.62 737.35C1220.07 737.528 1222.15 737.489 1224.58 736.569C1226.94 735.679 1228.99 733.822 1230.49 732.082C1231.22 731.226 1231.8 730.428 1232.2 729.847C1232.4 729.556 1232.55 729.322 1232.64 729.163C1232.69 729.084 1232.73 729.023 1232.75 728.984L1232.78 728.943L1232.78 728.935C1233.19 728.216 1234.11 727.966 1234.83 728.377Z" fill="#DB3915"/>
<path d="M1284.84 707.448C1284.84 707.448 1286.29 699.196 1290.07 693.857M1304.96 688.008C1304.96 688.008 1297.45 688.11 1293.54 690.457C1292.21 691.255 1291.06 692.455 1290.07 693.857M1290.07 693.857C1290.07 693.857 1296.27 693.044 1299.93 694.261C1301.88 694.91 1304.62 696.639 1304.62 696.639" stroke="#F1BFA9" stroke-width="4" stroke-linecap="round" stroke-linejoin="round"/>
<path d="M1270.5 607C1248.73 594.129 1218.96 583.126 1195 600.5C1180.33 611.136 1174.5 646 1174.5 646C1174.5 646 1197 607 1214 624.5C1248.31 659.824 1265.97 632.847 1274 656C1279.24 671.128 1274 697 1274 697L1288 668.5L1320 650C1320 650 1290.11 618.596 1270.5 607Z" fill="#171625"/>
<path d="M1295.5 614C1307 633.332 1308 665.5 1308 665.5H1322C1323.74 653.303 1316 620.5 1309.5 611C1297.41 593.333 1276.5 584.5 1276.5 584.5L1256.5 586C1256.5 586 1285.15 596.596 1295.5 614Z" fill="#BCECFF"/>
<path d="M1348 697.5C1348 720.972 1328.97 740 1305.5 740C1282.03 740 1263 720.972 1263 697.5C1263 674.028 1282.03 655 1305.5 655C1328.97 655 1348 674.028 1348 697.5Z" fill="#BCECFF"/>
<path d="M1332 699.5C1332 714.412 1319.91 726.5 1305 726.5C1290.09 726.5 1278 714.412 1278 699.5C1278 684.588 1290.09 672.5 1305 672.5C1319.91 672.5 1332 684.588 1332 699.5Z" stroke="#FCF6F9" stroke-width="3"/>
<path d="M1277.9 954.328C1300.23 974.913 1320.88 997.788 1320.88 997.788C1331.19 1006.01 1333.2 1020.9 1325.44 1031.56L1318.35 1041.3C1311.02 1051.37 1297.74 1055.09 1286.25 1050.3L1230.45 1031.14L1151.09 975.604C1148.31 973.658 1146.18 970.91 1145 967.727L1142.34 960.534C1140.57 955.778 1143.03 950.497 1147.81 948.786C1143.17 948.399 1140.08 943.828 1141.45 939.382L1141.95 937.754C1143.04 934.21 1146.26 931.752 1149.97 931.641L1153.67 931.53L1152.35 930.069C1149.42 926.806 1149.43 921.851 1152.38 918.603C1154.71 916.042 1158.35 915.135 1161.6 916.305L1224.37 938.856L1249.3 950.064L1224.82 920.948C1223.74 919.66 1223.7 917.792 1224.72 916.456C1225.89 914.932 1228.04 914.598 1229.61 915.713C1237.36 921.254 1259.76 937.602 1277.9 954.328Z" fill="#F1BFA9"/>
<path fill-rule="evenodd" clip-rule="evenodd" d="M1207.92 993.543C1207.55 994.285 1206.65 994.587 1205.91 994.218L1147.87 965.33C1147.13 964.961 1146.83 964.061 1147.2 963.319C1147.57 962.577 1148.47 962.275 1149.21 962.645L1207.24 991.532C1207.98 991.901 1208.29 992.802 1207.92 993.543ZM1214.38 975.941C1214.07 976.708 1213.19 977.075 1212.43 976.762L1151.44 951.835C1150.67 951.522 1150.31 950.646 1150.62 949.879C1150.93 949.112 1151.81 948.745 1152.58 949.058L1213.56 973.985C1214.33 974.299 1214.7 975.174 1214.38 975.941ZM1226.14 961.45C1225.84 962.221 1224.97 962.6 1224.19 962.296L1156.44 935.637C1155.67 935.334 1155.29 934.463 1155.59 933.692C1155.89 932.921 1156.77 932.542 1157.54 932.845L1225.29 959.505C1226.06 959.808 1226.44 960.679 1226.14 961.45Z" fill="#DD9576"/>
<path d="M1358.95 952.433C1335.51 922.872 1340.46 879.901 1370.02 856.454C1399.58 833.007 1442.56 837.963 1466 867.524L1650.2 1099.74C1673.65 1129.31 1668.69 1172.28 1639.13 1195.72C1609.57 1219.17 1566.6 1214.21 1543.15 1184.65L1358.95 952.433Z" fill="url(#paint3_linear_51_177)"/>
<path fill-rule="evenodd" clip-rule="evenodd" d="M1347.86 884.044C1348.66 884.242 1349.16 885.055 1348.96 885.859L1347.81 890.517C1342.39 912.467 1348.15 935.678 1363.2 952.547L1409.12 1004C1409.67 1004.62 1409.62 1005.57 1409 1006.12C1408.38 1006.67 1407.43 1006.62 1406.88 1006L1360.96 954.544C1345.25 936.936 1339.24 912.709 1344.89 889.798L1346.04 885.14C1346.24 884.336 1347.06 883.845 1347.86 884.044Z" fill="#171625"/>
<path d="M1231.5 1072.68L1302.5 967.5L1620.97 1074.82C1656.23 1088.25 1673.92 1127.72 1660.49 1162.98C1647.06 1198.24 1607.59 1215.94 1572.33 1202.51L1231.5 1072.68Z" fill="url(#paint4_linear_51_177)"/>
<path fill-rule="evenodd" clip-rule="evenodd" d="M1303.08 969.016C1303.35 968.232 1304.2 967.813 1304.98 968.08L1526.48 1043.58C1527.27 1043.85 1527.69 1044.7 1527.42 1045.48C1527.15 1046.27 1526.3 1046.69 1525.52 1046.42L1304.02 970.92C1303.23 970.652 1302.81 969.8 1303.08 969.016Z" fill="#171625"/>
<path fill-rule="evenodd" clip-rule="evenodd" d="M1324.1 1109.47C1324.39 1108.7 1325.25 1108.3 1326.03 1108.6L1468.03 1162.1C1468.8 1162.39 1469.2 1163.25 1468.9 1164.03C1468.61 1164.8 1467.75 1165.2 1466.97 1164.9L1324.97 1111.4C1324.2 1111.11 1323.8 1110.25 1324.1 1109.47Z" fill="#171625"/>
<path fill-rule="evenodd" clip-rule="evenodd" d="M686.812 497.084C687.318 496.428 688.26 496.306 688.916 496.812L933.416 685.312C934.072 685.818 934.194 686.76 933.688 687.416C933.182 688.072 932.24 688.194 931.584 687.688L687.084 499.188C686.428 498.682 686.306 497.74 686.812 497.084Z" fill="#171625"/>
<path d="M949.822 633.762C965.229 613.585 994.075 609.718 1014.25 625.124C1034.43 640.531 1038.3 669.377 1022.89 689.554L956.11 777.012C940.703 797.189 911.857 801.056 891.68 785.65C871.503 770.243 867.636 741.397 883.042 721.22L949.822 633.762Z" fill="#C2BBFF"/>
<path fill-rule="evenodd" clip-rule="evenodd" d="M931.302 657.081C931.796 656.416 932.735 656.278 933.4 656.771L1004.63 709.673C1005.3 710.167 1005.43 711.107 1004.94 711.772L974.821 752.328C974.327 752.993 973.387 753.131 972.722 752.638L901.491 699.736C900.826 699.242 900.688 698.302 901.182 697.637L931.302 657.081ZM932.816 660.074L904.484 698.222L973.307 749.335L1001.64 711.188L932.816 660.074Z" fill="#171625"/>
<path fill-rule="evenodd" clip-rule="evenodd" d="M936.294 624.529C936.851 624.64 937.297 625.056 937.447 625.604L948.947 667.604C949.166 668.403 948.695 669.228 947.896 669.447C947.097 669.666 946.272 669.195 946.053 668.396L935.344 629.283L878.677 702.006L921.294 710.529C922.107 710.692 922.633 711.482 922.471 712.294C922.308 713.107 921.518 713.633 920.706 713.471L875.706 704.471C875.196 704.369 874.775 704.01 874.594 703.522C874.413 703.035 874.497 702.488 874.817 702.078L934.817 625.078C935.166 624.63 935.737 624.418 936.294 624.529Z" fill="#171625"/>
<path fill-rule="evenodd" clip-rule="evenodd" d="M1034.67 698.364C1034.4 697.86 1033.88 697.546 1033.31 697.553L989.771 698.095C988.943 698.105 988.28 698.785 988.29 699.613C988.3 700.442 988.98 701.105 989.809 701.094L1030.36 700.59L976.106 775.131L956.148 736.523C955.768 735.787 954.863 735.499 954.127 735.879C953.391 736.26 953.103 737.165 953.483 737.9L974.557 778.667C974.795 779.129 975.257 779.434 975.775 779.474C976.294 779.513 976.796 779.281 977.102 778.861L1034.55 699.935C1034.88 699.476 1034.93 698.868 1034.67 698.364Z" fill="#171625"/>
<path fill-rule="evenodd" clip-rule="evenodd" d="M987.403 656.803C988.065 657.301 988.196 658.242 987.698 658.903L921.698 746.403C921.199 747.065 920.258 747.196 919.597 746.698C918.935 746.199 918.804 745.258 919.303 744.597L985.303 657.097C985.801 656.435 986.742 656.304 987.403 656.803Z" fill="#171625"/>
<path d="M1087.56 420.594C1089.42 416.988 1094.58 416.988 1096.44 420.594L1107.97 442.895C1108.37 443.676 1108.97 444.336 1109.71 444.81L1127.92 456.466C1130.99 458.433 1130.99 462.921 1127.92 464.888L1110.16 476.257C1109.14 476.908 1108.4 477.906 1108.06 479.065L1096.8 517.583C1095.4 522.379 1088.6 522.379 1087.2 517.583L1075.94 479.065C1075.6 477.906 1074.85 476.908 1073.84 476.257L1056.08 464.888C1053.01 462.921 1053.01 458.433 1056.08 456.466L1074.29 444.81C1075.03 444.336 1075.63 443.676 1076.03 442.895L1087.56 420.594Z" fill="#FBC3DE"/>
<path d="M901.558 856.584C903.423 852.981 908.576 852.981 910.44 856.584L915.724 866.796C916.128 867.577 916.73 868.238 917.471 868.711L925.913 874.111C928.988 876.077 928.988 880.569 925.913 882.535L917.919 887.648C916.901 888.299 916.153 889.297 915.814 890.456L910.798 907.599C909.395 912.394 902.603 912.394 901.201 907.599L896.185 890.456C895.845 889.297 895.098 888.299 894.08 887.648L886.085 882.535C883.011 880.569 883.011 876.077 886.085 874.111L894.528 868.711C895.269 868.238 895.871 867.577 896.275 866.796L901.558 856.584Z" fill="#FFB99B"/>
<path d="M1542.56 788.594C1544.42 784.988 1549.58 784.988 1551.44 788.594L1562.97 810.895C1563.37 811.676 1563.97 812.336 1564.71 812.81L1582.92 824.466C1585.99 826.433 1585.99 830.921 1582.92 832.888L1565.16 844.257C1564.14 844.908 1563.4 845.906 1563.06 847.065L1551.8 885.583C1550.4 890.379 1543.6 890.379 1542.2 885.583L1530.94 847.065C1530.6 845.906 1529.85 844.908 1528.84 844.257L1511.08 832.888C1508.01 830.921 1508.01 826.433 1511.08 824.466L1529.29 812.81C1530.03 812.336 1530.63 811.676 1531.03 810.895L1542.56 788.594Z" fill="#97F7F5"/>
<path d="M1435.5 554C1435.5 542.954 1444.45 534 1455.5 534H1671.5C1682.55 534 1691.5 542.954 1691.5 554V689.531C1691.5 700.577 1682.55 709.531 1671.5 709.531H1482.85C1476.71 709.531 1470.71 711.417 1465.68 714.933L1451.22 725.022C1444.6 729.65 1435.5 724.907 1435.5 716.823V554Z" fill="#DCE1F2"/>
<path d="M1485 587.5C1484.17 587.5 1483.5 588.172 1483.5 589C1483.5 589.828 1484.17 590.5 1485 590.5H1647C1647.83 590.5 1648.5 589.828 1648.5 589C1648.5 588.172 1647.83 587.5 1647 587.5H1485Z" fill="#171625"/>
<path d="M1485 623.5C1484.17 623.5 1483.5 624.172 1483.5 625C1483.5 625.828 1484.17 626.5 1485 626.5H1547C1547.83 626.5 1548.5 625.828 1548.5 625C1548.5 624.172 1547.83 623.5 1547 623.5H1485Z" fill="#171625"/>
<path d="M1562 625C1562 624.172 1562.67 623.5 1563.5 623.5H1647.5C1648.33 623.5 1649 624.172 1649 625C1649 625.828 1648.33 626.5 1647.5 626.5H1563.5C1562.67 626.5 1562 625.828 1562 625Z" fill="#171625"/>
<path d="M1485 659.5C1484.17 659.5 1483.5 660.172 1483.5 661C1483.5 661.828 1484.17 662.5 1485 662.5H1647C1647.83 662.5 1648.5 661.828 1648.5 661C1648.5 660.172 1647.83 659.5 1647 659.5H1485Z" fill="#171625"/>
<defs>
<linearGradient id="paint0_linear_51_177" x1="1120.22" y1="816.543" x2="1367.35" y2="1033.61" gradientUnits="userSpaceOnUse">
<stop stop-color="#97F7F5"/>
<stop offset="1" stop-color="#FBC3DE"/>
</linearGradient>
<linearGradient id="paint1_linear_51_177" x1="722" y1="904.5" x2="1023.22" y2="710.739" gradientUnits="userSpaceOnUse">
<stop stop-color="#97F7F5"/>
<stop offset="1" stop-color="#FBC3DE"/>
</linearGradient>
<linearGradient id="paint2_linear_51_177" x1="1011" y1="838.308" x2="1477.23" y2="911.481" gradientUnits="userSpaceOnUse">
<stop stop-color="#97F7F5"/>
<stop offset="1" stop-color="#FBC3DE"/>
</linearGradient>
<linearGradient id="paint3_linear_51_177" x1="1015.5" y1="835.5" x2="1226.73" y2="649.329" gradientUnits="userSpaceOnUse">
<stop stop-color="#97F7F5"/>
<stop offset="1" stop-color="#FBC3DE"/>
</linearGradient>
<linearGradient id="paint4_linear_51_177" x1="1062" y1="1273.5" x2="1095.19" y2="1033.63" gradientUnits="userSpaceOnUse">
<stop stop-color="#97F7F5"/>
<stop offset="1" stop-color="#FBC3DE"/>
</linearGradient>
</defs>
</svg>
